##      ## ########     ###    ######## ##     ## 
##  ##  ## ##     ##   ## ##      ##    ##     ## 
##  ##  ## ##     ##  ##   ##     ##    ##     ## 
##  ##  ## ########  ##     ##    ##    ######### 
##  ##  ## ##   ##   #########    ##    ##     ## 
##  ##  ## ##    ##  ##     ##    ##    ##     ## 
 ###  ###  ##     ## ##     ##    ##    ##     ## 


File Name : Fast Five 2011 TS H264-Wrath.mp4

 File Size
 Format : MPEG-4
 Format profile : Base Media
 Codec ID : isom
 File size : 1.32 GiB
 Duration : 1h 56mn
 Overall bit rate : 1 622 Kbps

 Video
 ID : 1
 Format : AVC
 Format/Info : Advanced Video Codec
 Format profile : High@L4.1
 Format settings, CABAC : Yes
 Format settings, ReFrames : 3 frames
 Codec ID : avc1
 Codec ID/Info : Advanced Video Coding
 Duration : 1h 56mn
 Bit rate mode : Variable
 Bit rate : 1 499 Kbps
 Maximum bit rate : 4 913 Kbps
 Width : 720 pixels
 Height : 304 pixels
 Display aspect ratio : 2.35:1
 Frame rate mode : Constant
 Frame rate : 23.976 fps
 Resolution : 24 bits
 Colorimetry : 4:2:0
 Scan type : Progressive
 Bits/(Pixel*Frame) : 0.286
 Stream size : 1.22 GiB (92%)

 Audio #1
 ID : 2
 Format : AAC
 Format/Info : Advanced Audio Codec
 Format version : Version 4
 Format profile : LC
 Format settings, SBR : No
 Codec ID : 40
 Duration : 1h 56mn
 Bit rate mode : Variable
 Bit rate : 119 Kbps
 Maximum bit rate : 158 Kbps
 Channel(s) : 2 channels
 Channel positions : L R
 Sampling rate : 48.0 KHz
 Resolution : 16 bits
 Stream size : 99.4 MiB (7%)

 English SRT : Hard coded when needed
 Language : English

 
http://www.imdb.com/title/tt1596343



 Release Date: 29 April 2011 (USA) 
 Genre: Action | Crime | Drama 
 Plot: Former cop Brian O'Conner partners with ex-con Dom Toretto on the opposite side of the law. Since Brian and Mia Toretto broke Dom out of custody, they've blown across many borders to elude authorities. Now backed into a corner in Rio de Janeiro, they must pull one last job in order to gain their freedom. As they assemble their elite team of top racers, the unlikely allies know their only shot of getting out for good means confronting the corrupt businessman who wants them dead. But he's not the only one on their tail. Hard-nosed federal agent Luke Hobbs never misses his target. When he is assigned to track down Dom and Brian, he and his strike team launch an all-out assault to capture them. But as his men tear through Brazil, Hobbs learns he can't separate the good guys from the bad. Now, he must rely on his instincts to corner his prey... before someone else runs them down first. 
 Cast:
 Vin Diesel ... Dominic Toretto
 Paul Walker ... Brian O'Conner
 Jordana Brewster ... Mia
 Tyrese Gibson ... Roman
 Ludacris ... Tej (as Chris 'Ludacris' Bridges)
 Matt Schulze ... Vince
 Sung Kang ... Han
 Gal Gadot ... Gisele
 Tego Calderon ... Leo
 Don Omar ... Santos
 Joaquim de Almeida ... Reyes
 Dwayne Johnson ... Hobbs
 Elsa Pataky ... Elena
 Michael Irby ... Zizi
 Fernando Chien ... Wilkes 

 


==================================    
http://thepiratebay.org/user/hiest
==================================




Screen Pics:
 
http://www.imagebam.com/image/2c66aa130413459
 
http://www.imagebam.com/image/56e4c5130413464
 
http://www.imagebam.com/image/34a456130413473
 
http://www.imagebam.com/image/d5e640130413479


##      ## ########     ###    ######## ##     ## 
##  ##  ## ##     ##   ## ##      ##    ##     ## 
##  ##  ## ##     ##  ##   ##     ##    ##     ## 
##  ##  ## ########  ##     ##    ##    ######### 
##  ##  ## ##   ##   #########    ##    ##     ## 
##  ##  ## ##    ##  ##     ##    ##    ##     ## 
 ###  ###  ##     ## ##     ##    ##    ##     ## 
